<mxfile host="app.diagrams.net" modified="2023-04-18T02:39:04.244Z" agent="Mozilla/5.0 (Windows NT 10.0; Win64; x64) AppleWebKit/537.36 (KHTML, like Gecko) Chrome/112.0.0.0 Safari/537.36 Edg/112.0.1722.48" etag="g9yB-2vuJOZMSKJE6UAc" version="21.1.8" type="github">
  <diagram name="第 1 页" id="__RwuvvS5KWhpy4iYucv">
    <mxGraphModel dx="1617" dy="756" grid="1" gridSize="10" guides="1" tooltips="1" connect="1" arrows="1" fold="1" page="1" pageScale="1" pageWidth="827" pageHeight="1169" math="0" shadow="0">
      <root>
        <mxCell id="0" />
        <mxCell id="1" parent="0" />
        <mxCell id="jO2CEjUDqOwyeXexdDUj-3" value="" style="shape=parallelogram;perimeter=parallelogramPerimeter;whiteSpace=wrap;html=1;fixedSize=1;size=80;" vertex="1" parent="1">
          <mxGeometry x="60" y="300" width="240" height="60" as="geometry" />
        </mxCell>
        <mxCell id="jO2CEjUDqOwyeXexdDUj-4" value="" style="ellipse;whiteSpace=wrap;html=1;" vertex="1" parent="1">
          <mxGeometry x="130" y="315" width="60" height="30" as="geometry" />
        </mxCell>
        <mxCell id="jO2CEjUDqOwyeXexdDUj-5" value="" style="shape=trapezoid;perimeter=trapezoidPerimeter;whiteSpace=wrap;html=1;fixedSize=1;rotation=-90;" vertex="1" parent="1">
          <mxGeometry x="190" y="320" width="15" height="20" as="geometry" />
        </mxCell>
        <mxCell id="jO2CEjUDqOwyeXexdDUj-10" style="edgeStyle=orthogonalEdgeStyle;rounded=0;orthogonalLoop=1;jettySize=auto;html=1;entryX=0.5;entryY=0;entryDx=0;entryDy=0;exitX=0.5;exitY=0;exitDx=0;exitDy=0;" edge="1" parent="1" source="jO2CEjUDqOwyeXexdDUj-7" target="jO2CEjUDqOwyeXexdDUj-9">
          <mxGeometry relative="1" as="geometry" />
        </mxCell>
        <mxCell id="jO2CEjUDqOwyeXexdDUj-7" value="" style="whiteSpace=wrap;html=1;aspect=fixed;" vertex="1" parent="1">
          <mxGeometry x="155" y="140" width="50" height="50" as="geometry" />
        </mxCell>
        <mxCell id="jO2CEjUDqOwyeXexdDUj-8" value="" style="shape=trapezoid;perimeter=trapezoidPerimeter;whiteSpace=wrap;html=1;fixedSize=1;size=10;" vertex="1" parent="1">
          <mxGeometry x="166.5" y="190" width="30" height="20" as="geometry" />
        </mxCell>
        <mxCell id="jO2CEjUDqOwyeXexdDUj-9" value="" style="rounded=0;whiteSpace=wrap;html=1;" vertex="1" parent="1">
          <mxGeometry x="410" y="150" width="100" height="220" as="geometry" />
        </mxCell>
        <mxCell id="jO2CEjUDqOwyeXexdDUj-14" value="" style="ellipse;whiteSpace=wrap;html=1;" vertex="1" parent="1">
          <mxGeometry x="186" y="305" width="23" height="10" as="geometry" />
        </mxCell>
      </root>
    </mxGraphModel>
  </diagram>
</mxfile>
